<svg data-v-423bf9ae="" xmlns="http://www.w3.org/2000/svg" viewBox="0 0 457.4431757786963 60" class="font"><!----><!----><defs data-v-423bf9ae=""><linearGradient data-v-423bf9ae="" gradientTransform="rotate(25)" id="cff0c2fb-2362-4d81-acd8-d95ccac00ddf" x1="0%" y1="0%" x2="100%" y2="0%"><stop data-v-423bf9ae="" offset="0%" style="stop-color: rgb(81, 164, 251); stop-opacity: 1;"></stop><stop data-v-423bf9ae="" offset="100%" style="stop-color: rgb(81, 164, 251); stop-opacity: 1;"></stop></linearGradient></defs><g data-v-423bf9ae="" id="42488972-6a03-4eb2-ba37-2e5e5ea51d3c" fill="url(#cff0c2fb-2362-4d81-acd8-d95ccac00ddf)" transform="matrix(5.681817956043021,0,0,5.681817956043021,-2.784084646765166,-16.53409097817812)"><path d="M0.49 13.30L4.83 13.30C6.96 13.30 8.33 12.53 8.33 10.58C8.33 8.93 7.15 8.20 5.80 8.02L5.80 7.99C7.11 7.73 7.88 6.92 7.88 5.84C7.88 5.07 7.57 4.49 7.01 4.12C6.47 3.75 5.66 3.61 4.54 3.61L0.49 3.61L0.49 4.02C1.72 4.10 1.75 4.13 1.75 4.91L1.75 12.00C1.75 12.78 1.72 12.81 0.49 12.89ZM3.14 11.73L3.14 8.33L4.14 8.33C5.88 8.33 6.83 9.20 6.83 10.68C6.83 12.36 5.68 12.81 4.48 12.81C3.36 12.81 3.14 12.60 3.14 11.73ZM3.14 7.84L3.14 4.80C3.14 4.20 3.18 4.10 4.27 4.10C5.29 4.10 6.41 4.48 6.41 5.92C6.41 7.29 5.53 7.84 4.07 7.84ZM9.24 6.97L9.77 7.04C10.14 7.10 10.22 7.17 10.22 7.67L10.22 11.37C10.22 12.98 11.17 13.47 12.21 13.47C13.40 13.47 14.36 12.66 14.77 12.46L14.91 13.30L17.15 13.30L17.15 12.89C16.18 12.82 16.10 12.80 16.10 12.08L16.10 6.36L16.00 6.27L13.80 6.62L13.80 6.97L14.34 7.04C14.70 7.10 14.78 7.17 14.78 7.67L14.78 10.82C14.78 11.21 14.74 11.52 14.67 11.66C14.35 12.31 13.68 12.71 12.95 12.71C12.14 12.71 11.54 12.21 11.54 11.12L11.54 6.36L11.44 6.27L9.24 6.62ZM17.64 13.30L21.06 13.30L21.06 12.89C20.06 12.82 20.01 12.80 20.01 12.08L20.01 3.00L19.91 2.91L17.71 3.26L17.71 3.61L18.24 3.67C18.61 3.71 18.69 3.78 18.69 4.31L18.69 12.08C18.69 12.80 18.65 12.82 17.64 12.89ZM21.55 13.30L24.96 13.30L24.96 12.89C23.97 12.82 23.91 12.80 23.91 12.08L23.91 9.74L23.94 9.74C24.51 10.65 25.51 11.87 26.24 12.61C26.75 13.13 27.30 13.30 27.75 13.33L28.80 13.37L28.80 12.98C28.38 12.87 28.03 12.66 27.59 12.22C26.73 11.37 25.63 10.04 25.10 9.28C25.03 9.18 25.00 9.11 25.14 8.96C25.82 8.19 26.26 7.78 26.74 7.43C27.22 7.08 27.57 6.92 28.38 6.83L28.38 6.44L26.94 6.44C26.46 6.44 26.33 6.51 26.05 6.85C25.65 7.34 24.26 9.07 23.94 9.55L23.91 9.55L23.91 3.00L23.81 2.91L21.62 3.26L21.62 3.61L22.15 3.67C22.51 3.71 22.60 3.78 22.60 4.31L22.60 12.08C22.60 12.80 22.55 12.82 21.55 12.89ZM32.24 13.30L39.66 13.30L39.83 10.88L39.41 10.88C39.09 12.59 38.46 12.81 36.69 12.81C36.04 12.81 35.53 12.78 35.24 12.67C34.94 12.54 34.89 12.31 34.89 11.62L34.89 8.53L36.85 8.53C38.04 8.53 38.09 8.86 38.22 9.74L38.64 9.74L38.64 6.79L38.22 6.79C38.09 7.66 38.04 7.99 36.85 7.99L34.89 7.99L34.89 4.61C34.89 4.16 34.96 4.10 35.41 4.10L36.78 4.10C38.37 4.10 38.70 4.45 38.89 5.91L39.31 5.91L39.31 3.61L32.24 3.61L32.24 4.02C33.47 4.10 33.50 4.13 33.50 4.91L33.50 12.00C33.50 12.78 33.47 12.81 32.24 12.89ZM40.63 13.30L44.04 13.30L44.04 12.89C43.05 12.82 42.99 12.80 42.99 12.08L42.99 8.81C42.99 8.46 43.01 8.26 43.11 8.06C43.37 7.50 43.99 7.03 44.76 7.03C45.96 7.03 46.10 7.91 46.10 8.78L46.10 12.08C46.10 12.80 46.06 12.82 45.05 12.89L45.05 13.30L48.47 13.30L48.47 12.89C47.47 12.82 47.42 12.80 47.42 12.08L47.42 8.81C47.42 8.46 47.43 8.26 47.52 8.04C47.73 7.48 48.33 7.03 49.11 7.03C49.99 7.03 50.53 7.53 50.53 8.78L50.53 12.08C50.53 12.80 50.48 12.82 49.48 12.89L49.48 13.30L52.89 13.30L52.89 12.89C51.90 12.82 51.84 12.80 51.84 12.08L51.84 8.50C51.84 7.08 51.09 6.27 49.76 6.27C48.61 6.27 47.78 7.04 47.29 7.35C46.96 6.69 46.42 6.27 45.44 6.27C44.37 6.27 43.48 6.97 42.99 7.34L42.87 6.27L40.70 6.62L40.70 6.97L41.23 7.04C41.59 7.10 41.68 7.17 41.68 7.67L41.68 12.08C41.68 12.80 41.64 12.82 40.63 12.89ZM53.79 11.48C53.79 12.53 54.49 13.47 55.80 13.47C56.62 13.47 57.44 12.92 57.89 12.63C58.09 13.15 58.31 13.47 58.80 13.47C59.32 13.47 59.92 13.31 60.45 13.05L60.37 12.71C60.17 12.75 59.86 12.78 59.65 12.73C59.40 12.67 59.16 12.40 59.16 11.52L59.16 8.13C59.16 7.32 58.98 6.27 56.87 6.27C55.29 6.27 54.04 7.10 54.04 7.87C54.04 8.32 54.56 8.53 54.82 8.53C55.12 8.53 55.20 8.37 55.27 8.13C55.58 7.10 56.15 6.76 56.71 6.76C57.26 6.76 57.90 7.04 57.90 8.16L57.90 8.75C57.55 9.11 56.20 9.46 55.09 9.81C54.08 10.12 53.79 10.82 53.79 11.48ZM55.20 11.28C55.20 10.63 55.51 10.29 56.29 10.00C56.85 9.79 57.60 9.52 57.90 9.32L57.90 11.30C57.90 12.43 57.04 12.73 56.49 12.73C55.62 12.73 55.20 12.11 55.20 11.28ZM61.71 4.14C61.71 4.65 62.06 5.00 62.57 5.00C63.07 5.00 63.42 4.65 63.42 4.14C63.42 3.64 63.07 3.29 62.57 3.29C62.06 3.29 61.71 3.64 61.71 4.14ZM60.87 13.30L64.29 13.30L64.29 12.89C63.29 12.82 63.24 12.80 63.24 12.08L63.24 6.36L63.14 6.27L60.94 6.62L60.94 6.97L61.47 7.04C61.84 7.10 61.92 7.17 61.92 7.67L61.92 12.08C61.92 12.80 61.88 12.82 60.87 12.89ZM64.78 13.30L68.19 13.30L68.19 12.89C67.20 12.82 67.14 12.80 67.14 12.08L67.14 3.00L67.05 2.91L64.85 3.26L64.85 3.61L65.38 3.67C65.74 3.71 65.83 3.78 65.83 4.31L65.83 12.08C65.83 12.80 65.79 12.82 64.78 12.89ZM69.09 9.93C69.09 12.14 70.04 13.47 72.32 13.47C73.88 13.47 74.68 12.60 75.05 11.49L74.63 11.27C74.24 12.08 73.71 12.75 72.60 12.75C70.87 12.75 70.52 11.07 70.55 9.62L74.58 9.62C74.87 9.62 75.14 9.55 75.14 9.09C75.14 8.26 74.87 6.27 72.31 6.27C70.13 6.27 69.09 7.83 69.09 9.93ZM70.56 9.09C70.56 8.51 70.77 6.76 72.23 6.76C73.53 6.76 73.68 8.09 73.68 8.64C73.68 8.90 73.60 9.09 73.21 9.09ZM76.05 13.30L79.74 13.30L79.74 12.89C78.50 12.82 78.41 12.80 78.41 12.08L78.41 8.81C78.41 7.73 78.89 7.36 79.21 7.36C79.44 7.36 79.67 7.45 80.08 7.67C80.18 7.73 80.29 7.74 80.36 7.74C80.70 7.74 81.00 7.39 81.00 6.96C81.00 6.65 80.81 6.27 80.26 6.27C79.76 6.27 79.34 6.58 78.41 7.39L78.25 6.27L76.12 6.62L76.12 6.97L76.65 7.04C77.01 7.10 77.10 7.17 77.10 7.67L77.10 12.08C77.10 12.80 77.03 12.82 76.05 12.89Z"></path></g><!----><!----></svg>